<?xml version="1.0" encoding="UTF-8"?>
<!DOCTYPE svg PUBLIC "-//W3C//DTD SVG 1.1//EN" "http://www.w3.org/Graphics/SVG/1.1/DTD/svg11.dtd">
<!-- Creator: CorelDRAW -->
<svg xmlns="http://www.w3.org/2000/svg" xml:space="preserve" width="135.457mm" height="103.251mm" version="1.1" style="shape-rendering:geometricPrecision; text-rendering:geometricPrecision; image-rendering:optimizeQuality; fill-rule:evenodd; clip-rule:evenodd"
viewBox="0 0 1675.49 1277.12"
 xmlns:xlink="http://www.w3.org/1999/xlink"
 xmlns:xodm="http://www.corel.com/coreldraw/odm/2003">
 <defs>
  <style type="text/css">
   <![CDATA[
    .fil0 {fill:black;fill-rule:nonzero}
   ]]>
  </style>
 </defs>
 <g id="Capa_x0020_1">
  <metadata id="CorelCorpID_0Corel-Layer"/>
  <path class="fil0" d="M1418.47 105.86c-106.82,-49.01 -221.32,-85.11 -341.05,-105.77 -2.16,-0.42 -4.33,0.63 -5.52,2.58 -14.73,26.18 -31.07,60.39 -42.45,87.2 -128.81,-19.27 -256.93,-19.27 -383.09,0 -11.38,-27.44 -28.35,-61.02 -43.08,-87.2 -1.19,-1.95 -3.35,-2.93 -5.52,-2.58 -119.67,20.6 -234.17,56.69 -341.05,105.77 -0.91,0.35 -1.75,1.05 -2.23,1.89 -217.2,324.51 -276.75,641.06 -247.57,953.7 0.14,1.54 0.98,3 2.16,3.91 143.33,105.28 282.13,169.17 418.41,211.47 2.16,0.7 4.47,-0.14 5.86,-1.95 32.25,-43.98 60.95,-90.41 85.6,-139.21 1.47,-2.86 0.07,-6.28 -2.93,-7.4 -45.59,-17.31 -88.95,-38.4 -130.7,-62.28 -3.28,-1.95 -3.56,-6.63 -0.56,-8.94 8.8,-6.56 17.59,-13.4 25.97,-20.32 1.54,-1.26 3.63,-1.54 5.45,-0.7 274.24,125.18 571.1,125.18 842.06,0 1.82,-0.84 3.91,-0.63 5.52,0.7 8.38,6.91 17.17,13.82 26.04,20.39 3.07,2.23 2.86,6.98 -0.49,8.94 -41.75,24.37 -85.11,45.03 -130.77,62.21 -3,1.12 -4.26,4.61 -2.86,7.47 25.13,48.73 53.9,95.16 85.53,139.15 1.33,1.89 3.7,2.65 5.86,2.02 136.91,-42.38 275.78,-106.26 419.04,-211.47 1.26,-0.91 2.02,-2.3 2.16,-3.84 34.91,-361.44 -58.51,-675.41 -247.71,-953.7 -0.35,-0.98 -1.19,-1.68 -2.1,-2.03zm-858.54 765.26c-82.59,0 -150.6,-75.82 -150.6,-168.89 0,-93.07 66.67,-168.89 150.6,-168.89 84.55,0 151.92,76.45 150.6,168.89 0,93.14 -66.75,168.89 -150.6,168.89zm556.79 0c-82.52,0 -150.6,-75.82 -150.6,-168.89 0,-93.07 66.67,-168.89 150.6,-168.89 84.55,0 151.92,76.45 150.6,168.89 -0,93.14 -66.05,168.89 -150.6,168.89z"/>
 </g>
</svg>
